<svg width="100" height="100" fill="none" xmlns="http://www.w3.org/2000/svg"><g clip-path="url(#a)"><path d="m114.699 78.531-36.168-93.23-93.23 36.168 36.168 93.23 93.23-36.168z" fill="#fff" fill-opacity=".01"/><path d="M11.154 65.07c4.491 11.576 18.977-2.142 29.77 1.858 9.211 3.413 14.268 25.75 24.146 21.918 21.454-8.323 32.099-32.462 23.776-53.916C80.523 13.476 56.384 2.831 34.93 11.154 13.476 19.477 2.831 43.616 11.154 65.07z" fill="url(#b)" stroke="url(#c)" stroke-width="3" stroke-linejoin="round"/><path d="M66.61 52.495a6.25 6.25 0 1 0 11.654-4.52 6.25 6.25 0 0 0-11.654 4.52z" fill="url(#d)" stroke="url(#e)" stroke-width="3" stroke-linejoin="round"/><path d="M49.799 32.201a6.25 6.25 0 1 0 11.653-4.52A6.25 6.25 0 0 0 49.8 32.2z" fill="url(#f)" stroke="url(#g)" stroke-width="3" stroke-linejoin="round"/><path d="M25.303 43.939a6.25 6.25 0 1 0 11.653-4.52 6.25 6.25 0 0 0-11.653 4.52z" fill="url(#h)" stroke="url(#i)" stroke-width="3" stroke-linejoin="round"/></g><defs><radialGradient id="c" cx="0" cy="0" r="1" gradientUnits="userSpaceOnUse" gradientTransform="rotate(158.797 20.32 29.68) scale(41.6667)"><stop stop-color="#334D5C"/><stop offset="1" stop-color="#406D87"/></radialGradient><radialGradient id="e" cx="0" cy="0" r="1" gradientUnits="userSpaceOnUse" gradientTransform="rotate(158.797 31.517 31.896) scale(6.25)"><stop stop-color="#334D5C"/><stop offset="1" stop-color="#406D87"/></radialGradient><radialGradient id="g" cx="0" cy="0" r="1" gradientUnits="userSpaceOnUse" gradientTransform="rotate(158.797 25.01 20.176) scale(6.25)"><stop stop-color="#334D5C"/><stop offset="1" stop-color="#406D87"/></radialGradient><radialGradient id="i" cx="0" cy="0" r="1" gradientUnits="userSpaceOnUse" gradientTransform="rotate(158.797 11.664 23.752) scale(6.25)"><stop stop-color="#334D5C"/><stop offset="1" stop-color="#406D87"/></radialGradient><linearGradient id="b" x1="88.846" y1="34.93" x2="11.154" y2="65.07" gradientUnits="userSpaceOnUse"><stop offset=".318" stop-color="#CAFCD8"/><stop offset="1" stop-color="#45B29D" stop-opacity=".65"/></linearGradient><linearGradient id="d" x1="78.264" y1="47.974" x2="66.61" y2="52.495" gradientUnits="userSpaceOnUse"><stop offset=".318" stop-color="#CAFCD8"/><stop offset="1" stop-color="#45B29D" stop-opacity=".65"/></linearGradient><linearGradient id="f" x1="61.453" y1="27.68" x2="49.799" y2="32.201" gradientUnits="userSpaceOnUse"><stop offset=".318" stop-color="#CAFCD8"/><stop offset="1" stop-color="#45B29D" stop-opacity=".65"/></linearGradient><linearGradient id="h" x1="36.956" y1="39.418" x2="25.303" y2="43.939" gradientUnits="userSpaceOnUse"><stop offset=".318" stop-color="#CAFCD8"/><stop offset="1" stop-color="#45B29D" stop-opacity=".65"/></linearGradient><clipPath id="a"><path fill="#fff" d="M0 0h100v100H0z"/></clipPath></defs></svg>