<svg width="100" height="100" fill="none" xmlns="http://www.w3.org/2000/svg"><path d="M100 0H0v100h100V0z" fill="#fff" fill-opacity=".01"/><path d="M64.583 12.5H35.417v18.75h29.166V12.5z" fill="url(#a)" stroke="url(#b)" stroke-width="3" stroke-linejoin="round"/><path d="M41.667 68.75H12.5V87.5h29.167V68.75z" fill="url(#c)" stroke="url(#d)" stroke-width="3" stroke-linejoin="round"/><path d="M87.5 68.75H58.333V87.5H87.5V68.75z" fill="url(#e)" stroke="url(#f)" stroke-width="3" stroke-linejoin="round"/><path d="M50 33.333V50" stroke="url(#g)" stroke-width="3" stroke-linecap="round" stroke-linejoin="round"/><path d="M27.083 68.75V50h45.834v18.75" stroke="url(#h)" stroke-width="3" stroke-linecap="round" stroke-linejoin="round"/><defs><radialGradient id="b" cx="0" cy="0" r="1" gradientUnits="userSpaceOnUse" gradientTransform="matrix(0 9.375 -14.5833 0 50 21.875)"><stop stop-color="#334D5C"/><stop offset="1" stop-color="#406D87"/></radialGradient><radialGradient id="d" cx="0" cy="0" r="1" gradientUnits="userSpaceOnUse" gradientTransform="matrix(0 9.375 -14.5833 0 27.083 78.125)"><stop stop-color="#334D5C"/><stop offset="1" stop-color="#406D87"/></radialGradient><radialGradient id="f" cx="0" cy="0" r="1" gradientUnits="userSpaceOnUse" gradientTransform="matrix(0 9.375 -14.5833 0 72.917 78.125)"><stop stop-color="#334D5C"/><stop offset="1" stop-color="#406D87"/></radialGradient><radialGradient id="g" cx="0" cy="0" r="1" gradientUnits="userSpaceOnUse" gradientTransform="matrix(0 8.33333 -.5 0 50.5 41.667)"><stop stop-color="#334D5C"/><stop offset="1" stop-color="#406D87"/></radialGradient><radialGradient id="h" cx="0" cy="0" r="1" gradientUnits="userSpaceOnUse" gradientTransform="matrix(0 9.375 -22.9167 0 50 59.375)"><stop stop-color="#334D5C"/><stop offset="1" stop-color="#406D87"/></radialGradient><linearGradient id="a" x1="50" y1="12.5" x2="50" y2="31.25" gradientUnits="userSpaceOnUse"><stop stop-color="#45B29D" stop-opacity=".59"/><stop offset=".74" stop-color="#CAFCD8"/></linearGradient><linearGradient id="c" x1="27.083" y1="68.75" x2="27.083" y2="87.5" gradientUnits="userSpaceOnUse"><stop stop-color="#45B29D" stop-opacity=".59"/><stop offset=".74" stop-color="#CAFCD8"/></linearGradient><linearGradient id="e" x1="72.917" y1="68.75" x2="72.917" y2="87.5" gradientUnits="userSpaceOnUse"><stop stop-color="#45B29D" stop-opacity=".59"/><stop offset=".74" stop-color="#CAFCD8"/></linearGradient></defs></svg>